HIERARCHY
ROOT Hips
{
	OFFSET 0.000000 0.000000 0.000000
	CHANNELS 6 Xposition Yposition Zposition Xrotation Yrotation Zrotation
	JOINT LeftUpLeg_virtual
	{
		OFFSET 0.000000 0.000000 0.000000
		CHANNELS 3 Xrotation Yrotation Zrotation
		JOINT LeftUpLeg
		{
			OFFSET 13.026900 -6.336304 -1.092800
			CHANNELS 3 Xrotation Yrotation Zrotation
			JOINT LeftLeg
			{
				OFFSET 0.524474 -46.096886 9.782700
				CHANNELS 3 Xrotation Yrotation Zrotation
				JOINT LeftFoot
				{
					OFFSET -0.524474 -53.427422 -12.948200
					CHANNELS 3 Xrotation Yrotation Zrotation
					JOINT LeftToeBase
					{
						OFFSET 0.192200 -14.009700 16.364100
						CHANNELS 3 Xrotation Yrotation Zrotation
						JOINT LeftToe_End
						{
							OFFSET -1.784700 -0.561700 9.474800
							CHANNELS 3 Xrotation Yrotation Zrotation
							End Site
							{
								OFFSET 0 0 0
							}
						}
					}
				}
			}
		}
	}
	JOINT RightUpLeg_virtual
	{
		OFFSET 0.000000 0.000000 0.000000
		CHANNELS 3 Xrotation Yrotation Zrotation
		JOINT RightUpLeg
		{
			OFFSET -12.883000 -6.336304 -1.092800
			CHANNELS 3 Xrotation Yrotation Zrotation
			JOINT RightLeg
			{
				OFFSET -0.524587 -46.096825 9.782800
				CHANNELS 3 Xrotation Yrotation Zrotation
				JOINT RightFoot
				{
					OFFSET 0.524587 -53.427383 -12.948300
					CHANNELS 3 Xrotation Yrotation Zrotation
					JOINT RightToeBase
					{
						OFFSET -0.192200 -14.009700 16.364100
						CHANNELS 3 Xrotation Yrotation Zrotation
						JOINT RightToe_End
						{
							OFFSET 1.784700 -0.561700 9.474800
							CHANNELS 3 Xrotation Yrotation Zrotation
							End Site
							{
								OFFSET 0 0 0
							}
						}
					}
				}
			}
		}
	}
	JOINT Spine_virtual
	{
		OFFSET 0.000000 0.000000 0.000000
		CHANNELS 3 Xrotation Yrotation Zrotation
		JOINT Spine
		{
			OFFSET 0.072000 7.257294 -0.789700
			CHANNELS 3 Xrotation Yrotation Zrotation
			JOINT Spine1
			{
				OFFSET 0.000000 12.508769 -0.658067
				CHANNELS 3 Xrotation Yrotation Zrotation
				JOINT Spine1_split
				{
					OFFSET 0.000000 12.508769 -0.658067
					CHANNELS 3 Xrotation Yrotation Zrotation
					JOINT Spine2
					{
						OFFSET 0.000000 12.508769 -0.658067
						CHANNELS 3 Xrotation Yrotation Zrotation
						JOINT Neck_virtual
						{
							OFFSET 0.000000 0.000000 0.000000
							CHANNELS 3 Xrotation Yrotation Zrotation
							JOINT Neck
							{
								OFFSET 0.000000 14.033295 7.520400
								CHANNELS 3 Xrotation Yrotation Zrotation
								JOINT Head
								{
									OFFSET 0.000000 8.198502 5.703100
									CHANNELS 3 Xrotation Yrotation Zrotation
									JOINT HeadTop_End
									{
										OFFSET 0.000000 17.760803 13.332701
										CHANNELS 3 Xrotation Yrotation Zrotation
										End Site
										{
											OFFSET 0 0 0
										}
									}
								}
							}
						}
						JOINT LeftShoulder_virtual
						{
							OFFSET 0.000000 0.000000 0.000000
							CHANNELS 3 Xrotation Yrotation Zrotation
							JOINT LeftShoulder
							{
								OFFSET 6.292450 5.785301 -0.669000
								CHANNELS 3 Xrotation Yrotation Zrotation
								JOINT LeftShoulder_split
								{
									OFFSET 6.292450 5.785301 -0.669000
									CHANNELS 3 Xrotation Yrotation Zrotation
									JOINT LeftArm
									{
										OFFSET 13.907140 -6.093903 1.965100
										CHANNELS 3 Xrotation Yrotation Zrotation
										JOINT LeftForeArm
										{
											OFFSET 34.140198 0.000000 0.000000
											CHANNELS 3 Xrotation Yrotation Zrotation
											JOINT LeftHand
											{
												OFFSET 40.960209 0.000000 0.000000
												CHANNELS 3 Xrotation Yrotation Zrotation
												End Site
												{
													OFFSET 0 0 0
												}
											}
										}
									}
								}
							}
						}
						JOINT RightShoulder_virtual
						{
							OFFSET 0.000000 0.000000 0.000000
							CHANNELS 3 Xrotation Yrotation Zrotation
							JOINT RightShoulder
							{
								OFFSET -6.292450 5.785301 -0.669000
								CHANNELS 3 Xrotation Yrotation Zrotation
								JOINT RightShoulder_split
								{
									OFFSET -6.292450 5.785301 -0.669000
									CHANNELS 3 Xrotation Yrotation Zrotation
									JOINT RightArm
									{
										OFFSET -13.907140 -6.093903 1.965100
										CHANNELS 3 Xrotation Yrotation Zrotation
										JOINT RightForeArm
										{
											OFFSET -34.140198 0.000000 0.000000
											CHANNELS 3 Xrotation Yrotation Zrotation
											JOINT RightHand
											{
												OFFSET -40.960209 0.000000 0.000000
												CHANNELS 3 Xrotation Yrotation Zrotation
												End Site
												{
													OFFSET 0 0 0
												}
											}
										}
									}
								}
							}
						}
					}
				}
			}
		}
	}
}
MOTION
Frames: 6
Frame Time: 0.03333333
-0.119618 117.116875 0.853287 0.000000 0.000000 0.000000 1.893908 -2.213563 -0.051692 -6.964123 -4.920126 9.756237 13.139574 0.009752 -1.548191 -5.743869 14.531246 -8.778309 -0.003555 -0.000003 0.000001 0.000000 0.000000 0.000000 1.893908 -2.213563 -0.051692 -6.359352 -4.987561 -9.226663 13.944658 -0.292741 0.064277 -8.086569 -10.807379 7.935531 0.109675 -0.000005 0.000002 0.000000 0.000000 0.000000 1.893908 -2.213563 -0.051692 2.071510 0.296347 0.807418 3.430435 -0.015269 0.185037 0.000000 0.000000 0.000000 0.000000 0.000000 0.000000 3.430503 0.005499 0.178976 -3.527216 -0.011364 -0.032778 -2.723273 -0.261569 0.276205 0.000000 0.000000 0.000000 3.430503 0.005499 0.178976 0.742837 8.952363 -13.053724 0.000000 0.000000 0.000000 10.737610 -6.254793 -54.002614 0.000006 -32.994246 0.000009 0.000000 0.000000 0.000000 3.430503 0.005499 0.178976 1.078069 -8.352865 11.371667 0.000000 0.000000 0.000000 3.407866 18.890954 61.317333 -0.000004 23.538782 0.000016 0.000000 0.000000 0.000000 
-0.455988 116.814537 0.726658 0.000000 0.000000 0.000000 1.851945 -2.504076 0.192240 -9.877265 -4.997027 9.761520 17.369777 -0.119685 -1.480116 -2.845070 13.809977 -10.226578 -5.458061 0.000000 0.000000 0.000000 0.000000 0.000000 1.851945 -2.504076 0.192240 -7.181691 -4.926189 -9.387305 15.276504 0.015711 0.087556 -8.672074 -10.735237 7.700336 -0.267550 0.000017 -0.000001 0.000000 0.000000 0.000000 1.851945 -2.504076 0.192240 2.560425 -0.347695 0.694228 2.747829 -0.169165 0.053065 0.000000 0.000000 0.000000 0.000000 0.000000 0.000000 2.748702 -0.152293 0.049086 -2.889078 0.082214 -0.012975 -1.319717 0.514194 0.602907 0.000000 0.000000 0.000000 2.748702 -0.152293 0.049086 0.729837 8.654327 -13.018122 0.000000 0.000000 0.000000 11.156656 -7.294850 -54.080656 -0.000001 -32.921047 -0.000009 0.000000 0.000000 0.000000 2.748702 -0.152293 0.049086 1.096790 -8.002339 11.568716 0.000000 0.000000 0.000000 3.614128 18.945283 61.044638 0.000009 23.957210 0.000007 0.000000 0.000000 0.000000 
-1.072389 115.710587 0.673756 0.000000 0.000000 0.000000 1.811591 -2.786574 0.145471 -17.465531 -3.226626 9.132634 28.002398 0.390351 -1.350947 2.427941 10.272903 -9.057061 -17.243864 -0.000003 0.000001 0.000000 0.000000 0.000000 1.811591 -2.786574 0.145471 -9.070204 -4.598200 -9.227562 18.871225 0.501262 0.185135 -10.439209 -10.967592 7.240917 0.297287 0.000013 0.000001 0.000000 0.000000 0.000000 1.811591 -2.786574 0.145471 3.173001 -1.087433 0.865178 1.995518 -0.356286 -0.085877 0.000000 0.000000 0.000000 0.000000 0.000000 0.000000 1.997351 -0.343516 -0.087452 -2.167619 0.192986 0.012224 0.272890 1.446352 0.944675 0.000000 0.000000 0.000000 1.997351 -0.343516 -0.087452 0.716352 8.326972 -12.991419 0.000000 0.000000 0.000000 11.631046 -8.501355 -54.118748 -0.000005 -32.909436 -0.000006 0.000000 0.000000 0.000000 1.997351 -0.343516 -0.087452 1.093919 -7.533888 11.715184 0.000000 0.000000 0.000000 3.896479 19.033861 60.675555 0.000003 24.640541 0.000004 0.000000 0.000000 0.000000 
-2.072305 115.315536 0.490868 0.000000 0.000000 0.000000 1.775951 -3.149388 0.802653 -18.829764 1.107206 8.233399 29.618914 0.201789 -1.394038 2.425106 5.564518 -8.167939 -18.370086 -0.000004 0.000000 0.000000 0.000000 0.000000 1.775951 -3.149388 0.802653 -10.216297 -4.093389 -9.354666 20.861973 0.909235 0.198465 -11.427909 -11.300972 6.561697 1.353073 -0.000005 0.000002 0.000000 0.000000 0.000000 1.775951 -3.149388 0.802653 3.799678 -1.815883 0.270207 1.297264 -0.529578 -0.216042 0.000000 0.000000 0.000000 0.000000 0.000000 0.000000 1.299994 -0.520887 -0.215222 -1.452508 0.299959 0.044722 1.976800 2.390918 1.235606 0.000000 0.000000 0.000000 1.299994 -0.520887 -0.215222 0.702417 7.944984 -12.955611 0.000000 0.000000 0.000000 12.132208 -9.857724 -54.116917 0.000010 -32.955096 -0.000003 0.000000 0.000000 0.000000 1.299994 -0.520887 -0.215222 1.088581 -6.982308 11.896793 0.000000 0.000000 0.000000 4.287069 19.240400 60.112884 0.000001 25.493329 0.000006 0.000000 0.000000 0.000000 
-2.868777 115.729446 0.146782 0.000000 0.000000 0.000000 1.757402 -3.735934 1.887809 -13.177858 5.873653 6.061492 22.623374 1.811093 -1.558087 -6.924564 2.003274 -4.135364 -5.535854 -0.000004 0.000001 0.000000 0.000000 0.000000 1.757402 -3.735934 1.887809 -10.537684 -4.007156 -9.938304 20.751074 1.185960 0.083618 -11.228011 -10.948823 6.100607 -0.084101 0.000003 0.000002 0.000000 0.000000 0.000000 1.757402 -3.735934 1.887809 4.309701 -2.328186 -0.813379 0.808572 -0.633503 -0.304564 0.000000 0.000000 0.000000 0.000000 0.000000 0.000000 0.811814 -0.628388 -0.301895 -0.879672 0.385958 0.088477 3.778539 3.269894 1.343228 0.000000 0.000000 0.000000 0.811814 -0.628388 -0.301895 0.686117 7.510855 -12.895288 0.000000 0.000000 0.000000 12.690015 -11.309512 -54.065810 -0.000004 -33.098543 -0.000012 0.000000 0.000000 0.000000 0.811814 -0.628388 -0.301895 1.097630 -6.395909 12.183825 0.000000 0.000000 0.000000 4.774867 19.563651 59.312844 0.000006 26.453932 -0.000008 0.000000 0.000000 0.000000 
-2.997330 115.846031 -0.074631 0.000000 0.000000 0.000000 1.771269 -4.693937 3.016453 -10.151754 8.244936 4.362134 18.788968 2.683940 -1.788385 -9.686410 0.449497 -3.386702 -0.279229 -0.000001 0.000002 0.000000 0.000000 0.000000 1.771269 -4.693937 3.016453 -13.782731 -4.786247 -10.619136 23.950881 2.138884 -0.146692 -8.350254 -8.491515 5.282864 -6.663058 -0.000007 -0.000005 0.000000 0.000000 0.000000 1.771269 -4.693937 3.016453 4.636139 -2.499560 -1.962817 0.601842 -0.654458 -0.327797 0.000000 0.000000 0.000000 0.000000 0.000000 0.000000 0.605047 -0.651550 -0.324227 -0.525359 0.457838 0.141748 5.717688 4.179164 1.154363 0.000000 0.000000 0.000000 0.605047 -0.651550 -0.324227 0.664442 7.044722 -12.794992 0.000000 0.000000 0.000000 13.415493 -12.829392 -53.916762 -0.000006 -33.387399 0.000003 0.000000 0.000000 0.000000 0.605047 -0.651550 -0.324227 1.122179 -5.794973 12.595361 0.000000 0.000000 0.000000 5.295482 19.812031 58.355231 0.000004 27.621512 -0.000008 0.000000 0.000000 0.000000 
